<?xml version="1.0" encoding="utf-8"?>
<!-- Generator: Adobe Illustrator 24.2.0, SVG Export Plug-In . SVG Version: 6.00 Build 0)  -->
<svg version="1.1" id="Layer_1" xmlns="http://www.w3.org/2000/svg" xmlns:xlink="http://www.w3.org/1999/xlink" x="0px" y="0px"
	 viewBox="0 0 180 40" style="enable-background:new 0 0 180 40;" xml:space="preserve">
<style type="text/css">
	.st0{fill:#00A575;}
	.st1{fill:#FFFFFF;}
	.st2{fill:#FFFFFF;stroke:#FF9999;stroke-width:0.25;stroke-miterlimit:10;}
	.st3{font-family:'Montserrat-SemiBold';}
	.st4{font-size:16px;}
	.st5{font-family:'Montserrat-Bold';}
</style>
<path class="st0" d="M0,14.7v13.1c0,0,30.1,4.5,26.8-26.8H14.2C14.2,1,17.6,17.7,0,14.7z"/>
<path class="st1" d="M0,13.5v12.9c0,0,30.1,4.5,26.8-26.5H13.2C13.2,0,17.6,16.5,0,13.5z"/>
<path class="st0" d="M40,26.9V13.5C40,13.5,7.9,9,11.2,40h14.6C25.7,40,23.5,23.3,40,26.9z"/>
<path class="st1" d="M40,26.4v-13C40,13.5,9.9,9,13.2,40h13.6C26.7,40,22.4,23.5,40,26.4z"/>
<g>
	<text transform="matrix(1 0 0 1 43.7154 15.9179)"><tspan x="0" y="0" class="st2 st3 st4">Children’s Wing</tspan><tspan x="12.5" y="19.2" class="st2 st5 st4">City Hospital</tspan></text>
</g>
</svg>
